<?xml version="1.0" encoding="utf-8"?>
<!-- Generator: Adobe Illustrator 19.2.1, SVG Export Plug-In . SVG Version: 6.00 Build 0)  -->
<svg version="1.0" id="checkbox-inactive" xmlns="http://www.w3.org/2000/svg" xmlns:xlink="http://www.w3.org/1999/xlink" x="0px"
	 y="0px" viewBox="0 0 16.5 16.5" style="enable-background:new 0 0 16.5 16.5;" xml:space="preserve">
<style type="text/css">
	.st0{fill:#373737;}
</style>
<path id="Rounded_Rectangle_1_copy" class="st0" d="M13.4,1c1.2,0,2.1,0.9,2.1,2.1v10.3c0,1.2-0.9,2.1-2.1,2.1H3.1
	c-1.2,0-2.1-0.9-2.1-2.1V3.1C1,1.9,1.9,1,3.1,1H13.4 M13.4,0H3.1C1.3,0,0,1.3,0,3.1v10.3c0,1.8,1.3,3.1,3.1,3.1h10.3
	c1.8,0,3.1-1.3,3.1-3.1V3.1C16.5,1.3,15.2,0,13.4,0L13.4,0z"/>
</svg>
