<?xml version="1.0" encoding="utf-8"?>
<!-- Generator: Adobe Illustrator 19.2.1, SVG Export Plug-In . SVG Version: 6.00 Build 0)  -->
<svg version="1.0" id="icon-door-4-active" xmlns="http://www.w3.org/2000/svg" xmlns:xlink="http://www.w3.org/1999/xlink" x="0px"
	 y="0px" viewBox="0 0 66.5 74" style="enable-background:new 0 0 66.5 74;" xml:space="preserve">
<style type="text/css">
	.st0{fill:#373737;}
</style>
<g>
	<path class="st0" d="M66.5,4.5V0H0v4.5h9.8v65H0V74h66.5v-4.5h-9.8v-65H66.5z M1,3.5V1h64.5v2.5h-8.8h-3h-1h-9h-1h-22h-4h-7H1z
		 M52.8,67.7l-2.1,1.8l0,0H44l8.8-7.8V67.7z M52.8,69.1v0.4h-0.5L52.8,69.1z M43.8,7.2l3.1-2.7h5.7l-8.8,7.8V7.2z M43.8,5.8V4.5h1.5
		L43.8,5.8z M52.8,60.3l-9,7.9v-5.6l9-7.9V60.3z M52.8,53.3l-9,7.9v-5.6l9-7.9V53.3z M52.8,46.3l-9,7.9v-5.6l9-7.9V46.3z M52.8,39.3
		l-9,7.9v-5.6l9-7.9V39.3z M52.8,32.3l-9,7.9V37v-2.3l9-7.9V32.3z M52.8,25.3l-9,7.9v-5.6l9-7.9V25.3z M52.8,18.3l-9,7.9v-5.6l9-7.9
		V18.3z M52.8,11.3l-9,7.9v-5.6l9-7.9V11.3z M10.8,4.5h6v2h1v-2h2v1h1v-1h22V37v32.5h-22v-3h-1v3h-2v-2h-1v2h-6V4.5z M65.5,70.5V73
		H1v-2.5h8.8h7h1h3h22h1h9h1h3H65.5z M55.8,69.5h-2v-65h2V69.5z"/>
	<rect x="19.8" y="22.5" class="st0" width="1" height="3"/>
	<rect x="19.8" y="30.5" class="st0" width="1" height="3"/>
	<rect x="19.8" y="26.5" class="st0" width="1" height="3"/>
	<rect x="19.8" y="14.5" class="st0" width="1" height="3"/>
	<rect x="19.8" y="34.5" class="st0" width="1" height="3"/>
	<rect x="19.8" y="6.5" class="st0" width="1" height="3"/>
	<rect x="19.8" y="10.5" class="st0" width="1" height="3"/>
	<rect x="19.8" y="18.5" class="st0" width="1" height="3"/>
	<rect x="16.8" y="31.5" class="st0" width="1" height="3"/>
	<rect x="16.8" y="63.5" class="st0" width="1" height="3"/>
	<rect x="16.8" y="27.5" class="st0" width="1" height="3"/>
	<rect x="16.8" y="23.5" class="st0" width="1" height="3"/>
	<rect x="16.8" y="39.5" class="st0" width="1" height="3"/>
	<rect x="16.8" y="51.5" class="st0" width="1" height="3"/>
	<rect x="16.8" y="55.5" class="st0" width="1" height="3"/>
	<rect x="16.8" y="43.5" class="st0" width="1" height="3"/>
	<rect x="16.8" y="59.5" class="st0" width="1" height="3"/>
	<rect x="16.8" y="47.5" class="st0" width="1" height="3"/>
	<rect x="16.8" y="19.5" class="st0" width="1" height="3"/>
	<rect x="16.8" y="35.5" class="st0" width="1" height="3"/>
	<rect x="19.8" y="54.5" class="st0" width="1" height="3"/>
	<rect x="19.8" y="58.5" class="st0" width="1" height="3"/>
	<rect x="19.8" y="50.5" class="st0" width="1" height="3"/>
	<rect x="16.8" y="15.5" class="st0" width="1" height="3"/>
	<rect x="19.8" y="42.5" class="st0" width="1" height="3"/>
	<rect x="19.8" y="46.5" class="st0" width="1" height="3"/>
	<rect x="19.8" y="62.5" class="st0" width="1" height="3"/>
	<rect x="19.8" y="38.5" class="st0" width="1" height="3"/>
	<rect x="16.8" y="11.5" class="st0" width="1" height="3"/>
	<rect x="16.8" y="7.5" class="st0" width="1" height="3"/>
	<path class="st0" d="M40.8,33.5h-9v3h9V33.5z M39.8,35.5h-7v-1h7V35.5z"/>
</g>
</svg>
