<?xml version="1.0" encoding="utf-8"?>
<!-- Generator: Adobe Illustrator 19.2.1, SVG Export Plug-In . SVG Version: 6.00 Build 0)  -->
<svg version="1.0" id="icon-door-2-active" xmlns="http://www.w3.org/2000/svg" xmlns:xlink="http://www.w3.org/1999/xlink" x="0px"
	 y="0px" viewBox="0 0 79.5 74" style="enable-background:new 0 0 79.5 74;" xml:space="preserve">
<style type="text/css">
	.st0{fill:#373737;}
</style>
<g>
	<path class="st0" d="M76.2,69.5V-0.1h-73v69.6H0V74h79.5v-4.5H76.2z M4.2,0.9h71v68.6h-2v-67h-33h-1h-33v67h-2V0.9z M39.2,69.5h-32
		v-66h32V69.5z M72.2,69.5h-32v-66h32V69.5z M78.5,73H1v-2.5h2.2h3h33h1h33h3h2.2V73z"/>
	<path class="st0" d="M51,33.5h-9v3h9V33.5z M50,35.5h-7v-1h7V35.5z"/>
	<path class="st0" d="M37,33.5h-9v3h9V33.5z M36,35.5h-7v-1h7V35.5z"/>
</g>
</svg>
