<?xml version="1.0" encoding="utf-8"?>
<!-- Generator: Adobe Illustrator 19.2.1, SVG Export Plug-In . SVG Version: 6.00 Build 0)  -->
<svg version="1.0" id="icon-door-3-active" xmlns="http://www.w3.org/2000/svg" xmlns:xlink="http://www.w3.org/1999/xlink" x="0px"
	 y="0px" viewBox="0 0 46.5 94" style="enable-background:new 0 0 46.5 94;" xml:space="preserve">
<style type="text/css">
	.st0{fill:#373737;}
</style>
<g>
	<path class="st0" d="M43,89.5V0H3v89.5H0V94h46.5v-4.5H43z M4,1h38v88.5h-2v-66H6v66H4V1z M39,89.5H7v-65h32V89.5z M45.5,93H1v-2.5
		h2h3h34h3h2.5V93z"/>
	<path class="st0" d="M40,3.5H6v18h34V3.5z M39,20.5H7v-16h32V20.5z"/>
	<path class="st0" d="M38,53.5h-9v3h9V53.5z M37,55.5h-7v-1h7V55.5z"/>
	<polygon class="st0" points="21.6,10.6 25.3,14.2 25.3,14.2 25.8,14.7 32.8,7.7 32.1,7 25.9,13.3 21.7,9.1 21.7,9.2 21.6,9.1 
		14.6,16.1 15.4,16.9 	"/>
</g>
</svg>
