<?xml version="1.0" encoding="utf-8"?>
<!-- Generator: Adobe Illustrator 19.2.1, SVG Export Plug-In . SVG Version: 6.00 Build 0)  -->
<svg version="1.0" id="Layer_1" xmlns="http://www.w3.org/2000/svg" xmlns:xlink="http://www.w3.org/1999/xlink" x="0px" y="0px"
	 viewBox="0 0 18 18" style="enable-background:new 0 0 18 18;" xml:space="preserve">
<style type="text/css">
	.st0{fill:#373737;}
</style>
<path id="phone" class="st0" d="M1.1,14.5L1.1,14.5c0.5-0.4,3-2.1,3.5-2.4c0.1,0,0.3,0,0.4,0.1c0.2,0.1,0.8,0.4,1.6,0.9l0.6,0.4
	L7.7,13c1-0.7,1.9-1.6,2.8-2.5c0.9-0.9,1.7-1.8,2.5-2.8l0.4-0.6l-0.4-0.6C12.8,6,12.3,5.2,12.2,5c-0.1-0.1-0.1-0.2-0.1-0.4
	c0,0,0,0,0,0c0,0,0,0,0,0c0.3-0.4,2-3.1,2.3-3.5c0.1,0,0.2,0,0.3,0.1c0.8,0.6,1.6,1.3,2.2,2.1c-0.1,2.1-2,5.1-5.2,8.3
	s-6.2,5.1-8.3,5.2c-0.8-0.6-1.6-1.3-2.1-2.2C1.1,14.7,1.1,14.6,1.1,14.5 M0,14.5c0,0.3,0.1,0.6,0.3,0.9c0,0,1.9,2.7,3,2.6
	c3.1-0.1,6.7-3.1,9.2-5.5s5.5-6.1,5.6-9.1v0c0-1.1-2.6-3-2.7-3c-0.5-0.5-1.3-0.4-1.8,0.1c-0.2,0.3-2.2,3.3-2.4,3.7
	C11,4.3,11,4.5,11,4.7c0,0.3,0.1,0.6,0.2,0.9c0.2,0.3,0.7,1.2,0.9,1.6c-0.7,1-1.5,1.8-2.3,2.7c-0.8,0.9-1.7,1.6-2.7,2.3
	c-0.4-0.2-1.3-0.7-1.6-0.9c-0.4-0.3-1-0.3-1.5-0.1c-0.3,0.2-3.3,2.2-3.6,2.4C0.1,13.8,0,14.1,0,14.5L0,14.5L0,14.5z"/>
</svg>
